<svg width="46" height="46" viewBox="0 0 46 46" fill="none" xmlns="http://www.w3.org/2000/svg">
<path d="M45.6075 9.9988C44.9474 8.85096 43.603 8.26895 41.6111 8.26895C41.5967 8.26895 41.5822 8.26904 41.5676 8.26913C40.1791 8.27497 38.4519 8.55627 36.4262 9.10522C34.1044 6.85517 31.2383 5.21777 28.0305 4.35239C23.0497 3.00869 17.8435 3.68512 13.3713 6.25708C8.89893 8.82894 5.69591 12.9885 4.3523 17.9695C3.48693 21.1772 3.46069 24.4782 4.23784 27.6165C2.74086 29.0951 1.62698 30.4494 0.923954 31.6488C-0.0924485 33.3826 -0.271327 34.8469 0.392528 36.0013C1.0527 37.1491 2.39685 37.7311 4.38869 37.7311C4.39965 37.7311 4.41079 37.7311 4.42175 37.731C5.81208 37.7265 7.54283 37.445 9.57375 36.8948C8.8408 36.1845 8.16168 35.4136 7.54391 34.586C8.14829 34.4514 8.82041 34.2793 9.57061 34.0596C14.0783 32.7389 19.6625 30.228 25.2942 26.9892C30.926 23.7505 35.9049 20.1868 39.3135 16.9549C39.8803 16.4175 40.3679 15.9227 40.7878 15.4684C40.4839 14.7546 40.1358 14.0543 39.7431 13.3713C39.3504 12.6884 38.9202 12.0354 38.4562 11.4138C41.9418 10.6376 43.1154 11.1413 43.2409 11.3597C43.3663 11.5777 43.2131 12.8448 40.7878 15.4684C41.1924 16.4185 41.517 17.393 41.7622 18.3836C43.2592 16.905 44.373 15.5505 45.0761 14.3512C46.0924 12.6174 46.2712 11.1529 45.6075 9.9988ZM2.75919 34.6402C2.63377 34.4222 2.78695 33.155 5.21229 30.5315C5.51623 31.2453 5.86428 31.9456 6.25699 32.6286C6.64961 33.3115 7.07978 33.9644 7.54382 34.5859C4.05761 35.3621 2.88461 34.858 2.75919 34.6402ZM33.4318 17.0007C31.8294 14.2143 29.2377 12.2187 26.1343 11.3815C24.052 10.8198 21.862 10.8246 19.801 11.396L19.0717 8.76498C21.6032 8.06321 24.2913 8.05647 26.8453 8.74548C30.6529 9.77266 33.8325 12.221 35.7985 15.6397L33.4318 17.0007Z" fill="#90E0EF"/>
<path d="M41.7623 18.3836C41.5776 18.566 41.3881 18.7499 41.1918 18.9361C37.6311 22.3122 32.4686 26.0126 26.6552 29.3558C20.8418 32.699 15.0469 35.3 10.3381 36.6796C10.0785 36.7557 9.82432 36.827 9.57375 36.8948C11.8955 39.1448 14.7617 40.7822 17.9695 41.6476C19.6436 42.0993 21.3425 42.3227 23.0312 42.3226C26.3664 42.3224 29.6598 41.4504 32.6287 39.7429C37.1011 37.1711 40.3041 33.0115 41.6477 28.0305C42.513 24.8228 42.5392 21.522 41.7623 18.3836Z" fill="#90E0EF"/>
</svg>
