<svg width="30" height="31" viewBox="0 0 30 31" fill="none" xmlns="http://www.w3.org/2000/svg">
<path d="M12.5 19.25L18.9875 15.5L12.5 11.75V19.25ZM26.95 9.4625C27.1125 10.05 27.225 10.8375 27.3 11.8375C27.3875 12.8375 27.425 13.7 27.425 14.45L27.5 15.5C27.5 18.2375 27.3 20.25 26.95 21.5375C26.6375 22.6625 25.9125 23.3875 24.7875 23.7C24.2 23.8625 23.125 23.975 21.475 24.05C19.85 24.1375 18.3625 24.175 16.9875 24.175L15 24.25C9.7625 24.25 6.5 24.05 5.2125 23.7C4.0875 23.3875 3.3625 22.6625 3.05 21.5375C2.8875 20.95 2.775 20.1625 2.7 19.1625C2.6125 18.1625 2.575 17.3 2.575 16.55L2.5 15.5C2.5 12.7625 2.7 10.75 3.05 9.4625C3.3625 8.3375 4.0875 7.6125 5.2125 7.3C5.8 7.1375 6.875 7.025 8.525 6.95C10.15 6.8625 11.6375 6.825 13.0125 6.825L15 6.75C20.2375 6.75 23.5 6.95 24.7875 7.3C25.9125 7.6125 26.6375 8.3375 26.95 9.4625Z" fill="black"/>
</svg>
